#!OML:ASF I:\Actors\actors\Patient Classification 2\Patient 1\Session 1\actor1.ASF
:FULLY-SPECIFIED
:DEGREES
256
root -1.90982 18.9531 5.26503 22.8322 1.1129 -1.508
lowerback 27.3804 2.68448 -4.33794
upperback 5.35565 1.80511 -3.72849
thorax -9.17113 0.911323 -2.30118
lowerneck -15.4563 2.48625 -3.74854
upperneck 1.83114 4.91069 -12.8738
head 3.33104 1.80479 -2.99142
rclavicle 2.78299e-014 2.14687e-014
rhumerus -43.2547 16.7863 -104.522
rradius 48.5742
rwrist 34.6044
rhand -13.7369 -36.273
rfingers 7.12502
rthumb 12.3828 -65.8862
lclavicle 2.78299e-014 2.14687e-014
lhumerus -52.9547 -11.5177 99.0585
lradius 80.2985
lwrist -3.26781
lhand -15.7595 -17.769
lfingers 7.12502
lthumb 10.4322 11.9521
rfemur 0 0 0
rtibia 0
rfoot 0 0
rtoes 0
lfemur -30.8986 -11.0439 -3.22126
ltibia 19.8058
lfoot -14.7395 20.2639
ltoes -54.138
257
root -1.90723 18.9505 5.27058 23.0821 1.49013 -1.64326
lowerback 27.1319 2.75991 -4.50967
upperback 5.36636 1.89258 -3.55769
thorax -9.04409 0.958827 -2.02912
lowerneck -15.4669 2.46805 -3.75308
upperneck 1.44008 4.81722 -12.5372
head 3.19519 1.7994 -2.89546
rclavicle 3.18055e-015 -7.95139e-016
rhumerus -43.3241 16.562 -104.26
rradius 48.7475
rwrist 34.4219
rhand -13.7951 -36.2754
rfingers 7.12502
rthumb 12.3266 -65.892
lclavicle 3.18055e-015 -7.95139e-016
lhumerus -52.8407 -11.5964 99.4127
lradius 80.2037
lwrist -3.61827
lhand -16.0323 -17.632
lfingers 7.12502
lthumb 10.169 12.1023
rfemur 0 0 0
rtibia 0
rfoot 0 0
rtoes 0
lfemur -31.3622 -11.2156 -2.89246
ltibia 19.9661
lfoot -14.7586 20.2918
ltoes -54.1491
258
root -1.90226 18.9487 5.27809 23.2975 1.86165 -1.7075
lowerback 26.9884 2.83892 -4.59753
upperback 5.34138 1.98981 -3.46642
thorax -9.00588 1.00813 -1.90429
lowerneck -15.5015 2.43473 -3.66008
upperneck 1.1791 4.70242 -12.1543
head 3.10307 1.77623 -2.8021
rclavicle 3.97569e-014 -6.75868e-014
rhumerus -43.4337 16.1548 -104.04
rradius 48.8965
rwrist 34.3349
rhand -13.9658 -36.2812
rfingers 7.12502
rthumb 12.1621 -65.9076
lclavicle 3.97569e-014 -6.75868e-014
lhumerus -52.8311 -11.7922 99.712
lradius 80.0934
lwrist -3.86175
lhand -16.216 -17.6732
lfingers 7.12502
lthumb 9.99179 12.0696
rfemur 0 0 0
rtibia 0
rfoot 0 0
rtoes 0
lfemur -31.7695 -11.4021 -2.65822
ltibia 20.1012
lfoot -14.8169 20.2784
ltoes -54.1003
259
root -1.89656 18.948 5.28924 23.4545 2.24755 -1.76621
lowerback 27.0341 2.91534 -4.65903
upperback 5.2501 2.07217 -3.38367
thorax -9.13763 1.05042 -1.81086
lowerneck -15.6391 2.39346 -3.72048
upperneck 1.05483 4.62001 -11.6027
head 3.06135 1.76304 -2.62955
rclavicle 3.89618e-014 -2.46493e-014
rhumerus -43.6054 15.7011 -103.854
rradius 48.9563
rwrist 34.2978
rhand -14.1109 -36.1556
rfingers 7.12502
rthumb 12.0221 -65.7903
lclavicle 3.89618e-014 -2.46493e-014
lhumerus -52.9565 -12.0725 100.019
lradius 79.9564
lwrist -4.10716
lhand -16.524 -17.9237
lfingers 7.12502
lthumb 9.69461 11.8332
rfemur 0 0 0
rtibia 0
rfoot 0 0
rtoes 0
lfemur -32.0943 -11.6133 -2.43607
ltibia 20.2195
lfoot -14.8772 20.2296
ltoes -54.0876
260
root -1.89221 18.9472 5.30017 23.6111 2.61858 -1.89006
lowerback 26.8421 2.97703 -4.76486
upperback 5.28481 2.15485 -3.24065
thorax -9.01087 1.0933 -1.60796
lowerneck -15.644 2.38132 -3.64113
upperneck 0.504334 4.5139 -11.0186
head 3.16553 1.7777 -2.71438
rclavicle 4.92986e-014 -5.12864e-014
rhumerus -43.5852 15.4263 -103.611
rradius 48.9814
rwrist 34.1782
rhand -14.1781 -36.0549
rfingers 7.12502
rthumb 11.9574 -65.6934
lclavicle 4.92986e-014 -5.12864e-014
lhumerus -52.8399 -12.2863 100.334
lradius 79.7367
lwrist -4.38147
lhand -16.9907 -18.2527
lfingers 7.12502
lthumb 9.24435 11.5247
rfemur 0 0 0
rtibia 0
rfoot 0 0
rtoes 0
lfemur -32.4096 -11.8048 -2.12694
ltibia 20.3343
lfoot -14.9292 20.171
ltoes -54.0184
261
root -1.88724 18.9465 5.3075 23.8122 2.95471 -1.99856
lowerback 26.7843 3.06043 -4.76145
upperback 5.1911 2.27029 -3.16939
thorax -9.09159 1.14927 -1.57085
lowerneck -15.7135 2.3062 -3.68833
upperneck 0.385817 4.38401 -10.4968
head 3.10881 1.73913 -2.5318
rclavicle 1.03368e-014 -3.93594e-014
rhumerus -43.7299 14.936 -103.446
rradius 49.0879
rwrist 33.9788
rhand -14.1916 -36.1877
rfingers 7.12502
rthumb 11.9444 -65.827
lclavicle 1.03368e-014 -3.93594e-014
lhumerus -52.9158 -12.6729 100.652
lradius 79.5366
lwrist -4.55696
lhand -17.2614 -18.4551
lfingers 7.12502
lthumb 8.98311 11.3336
rfemur 0 0 0
rtibia 0
rfoot 0 0
rtoes 0
lfemur -32.7813 -11.9879 -1.82202
ltibia 20.4528
lfoot -14.9539 20.1446
ltoes -53.9868
262
root -1.88142 18.9456 5.3122 24.0587 3.27719 -2.07288
lowerback 26.8763 3.15459 -4.67089
upperback 4.95396 2.39717 -3.1691
thorax -9.40489 1.20871 -1.68091
lowerneck -15.7018 2.20768 -3.77812
upperneck 0.347694 4.23039 -9.91948
head 3.06229 1.68859 -2.32645
rclavicle 4.45278e-014 -5.1684e-015
rhumerus -44.0795 14.2883 -103.383
rradius 49.2172
rwrist 33.9208
rhand -14.1557 -36.2853
rfingers 7.12502
rthumb 11.9789 -65.9225
lclavicle 4.45278e-014 -5.1684e-015
lhumerus -53.2945 -13.1533 100.95
lradius 79.435
lwrist -4.73547
lhand -17.4417 -18.5211
lfingers 7.12502
lthumb 8.80908 11.275
rfemur 0 0 0
rtibia 0
rfoot 0 0
rtoes 0
lfemur -33.2157 -12.1189 -1.57305
ltibia 20.5788
lfoot -14.8892 20.1467
ltoes -54.1459
263
root -1.877 18.9441 5.31676 24.2732 3.59671 -2.15352
lowerback 26.8925 3.24811 -4.68957
upperback 4.78616 2.5087 -3.11383
thorax -9.60788 1.2637 -1.65554
lowerneck -15.6856 2.12533 -3.82437
upperneck 0.19048 4.08835 -9.49208
head 2.98194 1.64418 -2.18037
rclavicle 5.20816e-014 -6.20208e-014
rhumerus -44.3505 13.6981 -103.271
rradius 49.3491
rwrist 34.0578
rhand -14.0088 -36.421
rfingers 7.12502
rthumb 12.1206 -66.0499
lclavicle 5.20816e-014 -6.20208e-014
lhumerus -53.5241 -13.4816 101.24
lradius 79.2594
lwrist -4.94657
lhand -17.7144 -18.6436
lfingers 7.12502
lthumb 8.54596 11.1635
rfemur 0 0 0
rtibia 0
rfoot 0 0
rtoes 0
lfemur -33.6134 -12.1448 -1.37482
ltibia 20.7149
lfoot -14.7462 20.0971
ltoes -54.386
264
root -1.87041 18.9432 5.32106 24.4463 3.9274 -2.20303
lowerback 26.822 3.33449 -4.78763
upperback 4.73014 2.60818 -2.99829
thorax -9.64615 1.31546 -1.50359
lowerneck -15.7267 2.04973 -3.81879
upperneck -0.0721674 3.94736 -9.15787
head 2.88143 1.60037 -2.07555
rclavicle -2.46493e-014 -1.11319e-014
rhumerus -44.4944 13.1716 -103.037
rradius 49.5185
rwrist 34.0822
rhand -13.8851 -36.7691
rfingers 7.12502
rthumb 12.2399 -66.3909
lclavicle -2.46493e-014 -1.11319e-014
lhumerus -53.4195 -13.8226 101.577
lradius 78.8969
lwrist -5.0332
lhand -17.9444 -18.7179
lfingers 7.12502
lthumb 8.32398 11.0981
rfemur 0 0 0
rtibia 0
rfoot 0 0
rtoes 0
lfemur -33.974 -12.206 -1.21833
ltibia 20.8551
lfoot -14.6575 20.0147
ltoes -54.4948
265
root -1.8578 18.9424 5.32331 24.6494 4.30551 -2.23663
lowerback 26.7288 3.36963 -4.80984
upperback 4.68263 2.66724 -2.87061
thorax -9.6606 1.34652 -1.36559
lowerneck -15.6976 1.97435 -3.85823
upperneck -0.454267 3.79702 -8.74867
head 2.72318 1.56175 -1.93811
rclavicle 1.15295e-014 1.74931e-014
rhumerus -44.6571 12.7342 -102.779
rradius 49.7086
rwrist 33.9267
rhand -13.9174 -36.983
rfingers 7.12502
rthumb 12.2088 -66.6067
lclavicle 1.15295e-014 1.74931e-014
lhumerus -53.2725 -14.0804 101.921
lradius 78.5662
lwrist -5.21143
lhand -18.0729 -18.7272
lfingers 7.12502
lthumb 8.19997 11.0937
rfemur 0 0 0
rtibia 0
rfoot 0 0
rtoes 0
lfemur -34.4097 -12.4331 -1.00639
ltibia 20.9946
lfoot -14.665 20.0161
ltoes -54.52
266
root -1.8439 18.9413 5.32768 24.8613 4.71888 -2.30117
lowerback 26.6097 3.37409 -4.7789
upperback 4.62938 2.70575 -2.7236
thorax -9.66693 1.36688 -1.22799
lowerneck -15.6767 1.90942 -3.97472
upperneck -0.795187 3.67851 -8.27531
head 2.57934 1.53809 -1.76454
rclavicle 2.78299e-015 -3.26007e-014
rhumerus -44.8626 12.378 -102.544
rradius 49.9272
rwrist 33.7283
rhand -13.9947 -37.1298
rfingers 7.12502
rthumb 12.1342 -66.7579
lclavicle 2.78299e-015 -3.26007e-014
lhumerus -53.2299 -14.2068 102.256
lradius 78.3448
lwrist -5.51933
lhand -18.1738 -18.9088
lfingers 7.12502
lthumb 8.10264 10.9158
rfemur 0 0 0
rtibia 0
rfoot 0 0
rtoes 0
lfemur -34.8638 -12.7084 -0.729693
ltibia 21.135
lfoot -14.6849 20.0511
ltoes -54.5561
267
root -1.83102 18.9397 5.33297 25.0603 5.11557 -2.3768
lowerback 26.5086 3.38674 -4.7253
upperback 4.55698 2.75667 -2.59302
thorax -9.7027 1.39226 -1.12788
lowerneck -15.6893 1.85665 -4.08612
upperneck -1.00754 3.59138 -7.81399
head 2.48916 1.52197 -1.5956
rclavicle -4.96962e-014 4.01545e-014
rhumerus -45.068 11.9371 -102.306
rradius 50.0832
rwrist 33.6591
rhand -14.22 -37.1367
rfingers 7.12502
rthumb 11.917 -66.7776
lclavicle -4.96962e-014 4.01545e-014
lhumerus -53.2939 -14.405 102.584
lradius 78.15
lwrist -5.75419
lhand -18.3715 -19.1559
lfingers 7.12502
lthumb 7.9118 10.676
rfemur 0 0 0
rtibia 0
rfoot 0 0
rtoes 0
lfemur -35.289 -12.9194 -0.464769
ltibia 21.2792
lfoot -14.6947 20.03
ltoes -54.5436
268
root -1.8172 18.9379 5.33397 25.2261 5.49225 -2.44806
lowerback 26.4876 3.39933 -4.68046
upperback 4.47185 2.79785 -2.46873
thorax -9.79393 1.4134 -1.03125
lowerneck -15.6621 1.84162 -4.04737
upperneck -1.2376 3.5292 -7.44865
head 2.39369 1.5158 -1.48457
rclavicle -2.38542e-015 1.43125e-014
rhumerus -45.2484 11.4284 -102.057
rradius 50.1817
rwrist 33.6241
rhand -14.4076 -36.9867
rfingers 7.12502
rthumb 11.7361 -66.6379
lclavicle -2.38542e-015 1.43125e-014
lhumerus -53.362 -14.5884 102.881
lradius 77.9703
lwrist -5.9043
lhand -18.5991 -19.2587
lfingers 7.12502
lthumb 7.69212 10.5814
rfemur 0 0 0
rtibia 0
rfoot 0 0
rtoes 0
lfemur -35.6869 -13.0816 -0.238745
ltibia 21.4279
lfoot -14.6918 19.9598
ltoes -54.4813
269
root -1.803 18.9357 5.33331 25.3995 5.87839 -2.51548
lowerback 26.4813 3.41382 -4.65409
upperback 4.38147 2.83894 -2.3117
thorax -9.9014 1.43573 -0.888396
lowerneck -15.6736 1.81578 -3.9908
upperneck -1.46915 3.454 -7.08735
head 2.30584 1.50156 -1.37946
rclavicle -3.57812e-015 3.33958e-014
rhumerus -45.4504 10.9546 -101.779
rradius 50.3201
rwrist 33.6059
rhand -14.4569 -37.1463
rfingers 7.12502
rthumb 11.6885 -66.8003
lclavicle -3.57812e-015 3.33958e-014
lhumerus -53.4881 -14.8307 103.237
lradius 77.8593
lwrist -5.92568
lhand -18.7755 -19.252
lfingers 7.12502
lthumb 7.52185 10.5942
rfemur 0 0 0
rtibia 0
rfoot 0 0
rtoes 0
lfemur -36.1079 -13.2425 -0.0101483
ltibia 21.5804
lfoot -14.6562 19.8921
ltoes -54.4365
270
root -1.78724 18.9336 5.33229 25.6319 6.26569 -2.56742
lowerback 26.4109 3.42332 -4.5883
upperback 4.27646 2.88721 -2.16839
thorax -9.99044 1.4602 -0.783135
lowerneck -15.6992 1.75037 -4.04675
upperneck -1.66628 3.34731 -6.62607
head 2.22739 1.47302 -1.22457
rclavicle -9.54166e-015 2.06736e-014
rhumerus -45.6708 10.5024 -101.51
rradius 50.4673
rwrist 33.6969
rhand -14.5052 -37.5753
rfingers 7.12502
rthumb 11.642 -67.2319
lclavicle -9.54166e-015 2.06736e-014
lhumerus -53.641 -15.1591 103.62
lradius 77.6945
lwrist -5.90659
lhand -18.9632 -19.3565
lfingers 7.12502
lthumb 7.34072 10.4961
rfemur 0 0 0
rtibia 0
rfoot 0 0
rtoes 0
lfemur -36.6116 -13.4446 0.241556
ltibia 21.7495
lfoot -14.6204 19.8806
ltoes -54.4828
